<?xml version="1.0" encoding="UTF-8" standalone="no"?>
<svg
   xmlns:dc="http://purl.org/dc/elements/1.1/"
   xmlns:cc="http://creativecommons.org/ns#"
   xmlns:rdf="http://www.w3.org/1999/02/22-rdf-syntax-ns#"
   xmlns:svg="http://www.w3.org/2000/svg"
   xmlns="http://www.w3.org/2000/svg"
   xmlns:sodipodi="http://sodipodi.sourceforge.net/DTD/sodipodi-0.dtd"
   xmlns:inkscape="http://www.inkscape.org/namespaces/inkscape"
   height="591pt"
   version="1.1"
   viewBox="0 0 591.60405 591"
   width="591pt"
   id="svg2"
   inkscape:version="0.48.5 r10040"
   sodipodi:docname="pago por tarjeta.svg">
  <metadata
     id="metadata53">
    <rdf:RDF>
      <cc:Work
         rdf:about="">
        <dc:format>image/svg+xml</dc:format>
        <dc:type
           rdf:resource="http://purl.org/dc/dcmitype/StillImage" />
        <dc:title></dc:title>
      </cc:Work>
    </rdf:RDF>
  </metadata>
  <defs
     id="defs51">
    <marker
       inkscape:stockid="Arrow1Lend"
       orient="auto"
       refY="0.0"
       refX="0.0"
       id="Arrow1Lend"
       style="overflow:visible;">
      <path
         id="path3919"
         d="M 0.0,0.0 L 5.0,-5.0 L -12.5,0.0 L 5.0,5.0 L 0.0,0.0 z "
         style="fill-rule:evenodd;stroke:#000000;stroke-width:1.0pt;"
         transform="scale(0.8) rotate(180) translate(12.5,0)" />
    </marker>
    <marker
       inkscape:stockid="Arrow1Mend"
       orient="auto"
       refY="0.0"
       refX="0.0"
       id="Arrow1Mend"
       style="overflow:visible;">
      <path
         id="path3925"
         d="M 0.0,0.0 L 5.0,-5.0 L -12.5,0.0 L 5.0,5.0 L 0.0,0.0 z "
         style="fill-rule:evenodd;stroke:#000000;stroke-width:1.0pt;"
         transform="scale(0.4) rotate(180) translate(10,0)" />
    </marker>
    <marker
       inkscape:stockid="Arrow1Send"
       orient="auto"
       refY="0.0"
       refX="0.0"
       id="Arrow1Send"
       style="overflow:visible;">
      <path
         id="path3931"
         d="M 0.0,0.0 L 5.0,-5.0 L -12.5,0.0 L 5.0,5.0 L 0.0,0.0 z "
         style="fill-rule:evenodd;stroke:#000000;stroke-width:1.0pt;"
         transform="scale(0.2) rotate(180) translate(6,0)" />
    </marker>
    <marker
       inkscape:stockid="Arrow2Lend"
       orient="auto"
       refY="0.0"
       refX="0.0"
       id="Arrow2Lend"
       style="overflow:visible;">
      <path
         id="path3937"
         style="fill-rule:evenodd;stroke-width:0.62500000;stroke-linejoin:round;"
         d="M 8.7185878,4.0337352 L -2.2072895,0.016013256 L 8.7185884,-4.0017078 C 6.9730900,-1.6296469 6.9831476,1.6157441 8.7185878,4.0337352 z "
         transform="scale(1.1) rotate(180) translate(1,0)" />
    </marker>
    <clipPath
       clipPathUnits="userSpaceOnUse"
       id="clipPath5454">
      <path
         style="fill:#eeffaa;stroke:#000000;stroke-width:1.70130658px;stroke-linecap:butt;stroke-linejoin:miter;stroke-opacity:1"
         d="m -313.59224,74.870463 17.27453,-9.79008 102.42858,-24.085551 -31.25514,68.208768 -68.11528,5.27184 z"
         id="path5456"
         inkscape:connector-curvature="0" />
    </clipPath>
  </defs>
  <sodipodi:namedview
     pagecolor="#ffffff"
     bordercolor="#666666"
     borderopacity="1"
     objecttolerance="10"
     gridtolerance="10"
     guidetolerance="10"
     inkscape:pageopacity="0"
     inkscape:pageshadow="2"
     inkscape:window-width="1920"
     inkscape:window-height="1017"
     id="namedview49"
     showgrid="false"
     showguides="true"
     inkscape:guide-bbox="true"
     inkscape:snap-global="false"
     inkscape:zoom="2.1214044"
     inkscape:cx="-209.12575"
     inkscape:cy="765.38748"
     inkscape:window-x="1358"
     inkscape:window-y="-8"
     inkscape:window-maximized="1"
     inkscape:current-layer="g5308">
    <sodipodi:guide
       orientation="0,1"
       position="-343.98637,201.32536"
       id="guide3136" />
  </sodipodi:namedview>
  <rect
     style="opacity:0.61233479;fill:#000000;fill-opacity:0;stroke:none"
     id="rect3032"
     width="125.95718"
     height="125.95718"
     x="-610.73279"
     y="315.86478"
     inkscape:export-filename="C:\PROYECTOS GIT\TRANSPORTAUTO\img\publica\pago_tarjeta.png"
     inkscape:export-xdpi="72"
     inkscape:export-ydpi="72" />
  <g
     id="surface1"
     transform="matrix(0.16638904,0,0,0.16638904,-597.00532,336.82406)"
     inkscape:export-filename="C:\PROYECTOS GIT\TRANSPORTAUTO\img\publica\pago_tarjeta.png"
     inkscape:export-xdpi="72"
     inkscape:export-ydpi="72">
    <path
       d="M 555.87891,168.51953 449.10547,61.542969 l 0,428.687501 142.89453,0 0,-234.85156 c 0,-32.60938 -13.00391,-63.8711 -36.12109,-86.85938 z m 0,0"
       style="fill:#ffb57f;fill-opacity:1;fill-rule:nonzero;stroke:none"
       id="path5"
       inkscape:connector-curvature="0" />
    <path
       d="M 83.457031,412.11719 2.738281,202.57031 C -5.363281,181.53516 5.117188,157.90625 26.164062,149.80078 L 407.15625,3.046875 c 21.03516,-8.101563 44.66406,2.378906 52.76562,23.425781 l 80.71875,209.546874 c 8.10157,21.03516 -2.3789,44.66406 -23.42578,52.76953 L 136.23437,435.54297 c -21.04687,8.10156 -44.664058,-2.39063 -52.777339,-23.42578 z m 0,0"
       style="fill:#de4a3a;fill-opacity:1;fill-rule:nonzero;stroke:none"
       id="path7"
       inkscape:connector-curvature="0" />
    <path
       d="M 489.01172,101.96094 32.195312,279.03125 62.613281,357.99219 519.44922,181.00391 z m 0,0"
       style="fill:#78472e;fill-opacity:1;fill-rule:nonzero;stroke:none"
       id="path9"
       inkscape:connector-curvature="0" />
    <path
       d="m 0.00390625,265.67969 0,-224.550784 c 0,-22.546875 18.28124975,-40.828125 40.82812475,-40.828125 l 408.273439,0 c 22.54687,0 40.82812,18.28125 40.82812,40.828125 l 0,224.550784 c 0,22.54687 -18.28125,40.82812 -40.82812,40.82812 l -408.273439,0 c -22.546875,0 -40.82812475,-18.28125 -40.82812475,-40.82812 z m 0,0"
       style="fill:#4297cf;fill-opacity:1;fill-rule:nonzero;stroke:none"
       id="path11"
       inkscape:connector-curvature="0" />
    <path
       d="m 449.10547,0.300781 -43.37891,0 -306.207029,306.207029 349.585939,0 c 22.54687,0 40.82812,-18.28125 40.82812,-40.82812 l 0,-224.550784 c 0,-22.546875 -18.28125,-40.828125 -40.82812,-40.828125 z m 0,0"
       style="fill:#3d8ac7;fill-opacity:1;fill-rule:nonzero;stroke:none"
       id="path13"
       inkscape:connector-curvature="0" />
    <path
       d="m 40.832031,163.60937 40.828125,0 0,20.41407 -40.828125,0 z m 0,0"
       style="fill:#5cb3cf;fill-opacity:1;fill-rule:nonzero;stroke:none"
       id="path15"
       inkscape:connector-curvature="0" />
    <path
       d="m 40.832031,224.85156 40.828125,0 0,20.41406 -40.828125,0 z m 0,0"
       style="fill:#5cb3cf;fill-opacity:1;fill-rule:nonzero;stroke:none"
       id="path17"
       inkscape:connector-curvature="0" />
    <path
       d="m 224.55469,224.85156 40.82812,0 0,20.41406 -40.82812,0 z m 0,0"
       style="fill:#5cb3cf;fill-opacity:1;fill-rule:nonzero;stroke:none"
       id="path19"
       inkscape:connector-curvature="0" />
    <path
       d="m 102.07422,163.60937 40.82422,0 0,20.41407 -40.82422,0 z m 0,0"
       style="fill:#5cb3cf;fill-opacity:1;fill-rule:nonzero;stroke:none"
       id="path21"
       inkscape:connector-curvature="0" />
    <path
       d="m 163.3125,163.60937 40.82812,0 0,20.41407 -40.82812,0 z m 0,0"
       style="fill:#5cb3cf;fill-opacity:1;fill-rule:nonzero;stroke:none"
       id="path23"
       inkscape:connector-curvature="0" />
    <path
       d="m 224.55469,163.60937 40.82812,0 0,20.41407 -40.82812,0 z m 0,0"
       style="fill:#5cb3cf;fill-opacity:1;fill-rule:nonzero;stroke:none"
       id="path25"
       inkscape:connector-curvature="0" />
    <path
       d="m 418.48437,41.128906 20.41407,0 0,30.621094 -20.41407,0 z m 0,0"
       style="fill:#5cb3cf;fill-opacity:1;fill-rule:nonzero;stroke:none"
       id="path27"
       inkscape:connector-curvature="0" />
    <path
       d="m 377.65625,41.128906 20.41406,0 0,30.621094 -20.41406,0 z m 0,0"
       style="fill:#5cb3cf;fill-opacity:1;fill-rule:nonzero;stroke:none"
       id="path29"
       inkscape:connector-curvature="0" />
    <path
       d="m 336.82812,41.128906 20.41407,0 0,30.621094 -20.41407,0 z m 0,0"
       style="fill:#5cb3cf;fill-opacity:1;fill-rule:nonzero;stroke:none"
       id="path31"
       inkscape:connector-curvature="0" />
    <path
       d="m 296.00391,41.128906 20.41015,0 0,30.621094 -20.41015,0 z m 0,0"
       style="fill:#5cb3cf;fill-opacity:1;fill-rule:nonzero;stroke:none"
       id="path33"
       inkscape:connector-curvature="0" />
    <path
       d="m 408.27734,490.23047 183.72266,0 0,102.0664 -183.72266,0 z m 0,0"
       style="fill:#87b335;fill-opacity:1;fill-rule:nonzero;stroke:none"
       id="path35"
       inkscape:connector-curvature="0" />
    <path
       d="m 378.32031,184.6875 c -17.3125,-17.25 -45.32812,-17.19922 -62.57812,0.11328 -16.67969,16.73828 -17.25782,43.63281 -1.31641,61.07813 l 83.64453,91.25 c -25.14062,44 -24.0664,98.25781 2.78516,141.23046 l 7.42187,11.8711 132.6875,0 0,-142.89453 z m 0,0"
       style="fill:#ffb57f;fill-opacity:1;fill-rule:nonzero;stroke:none"
       id="path37"
       inkscape:connector-curvature="0" />
    <path
       d="m 438.89844,520.85156 20.41406,0 0,20.41406 -20.41406,0 z m 0,0"
       style="fill:#689428;fill-opacity:1;fill-rule:nonzero;stroke:none"
       id="path39"
       inkscape:connector-curvature="0" />
    <path
       d="m 40.832031,106.45313 0,-48.992192 c 0,-9.023438 7.308594,-16.332032 16.332031,-16.332032 l 48.992188,0 c 9.02344,0 16.32813,7.308594 16.32813,16.332032 l 0,48.992192 c 0,9.02343 -7.30469,16.33203 -16.32813,16.33203 l -48.992188,0 c -9.023437,0 -16.332031,-7.3086 -16.332031,-16.33203 z m 0,0"
       style="fill:#fdb52e;fill-opacity:1;fill-rule:nonzero;stroke:none"
       id="path41"
       inkscape:connector-curvature="0" />
    <path
       d="m 40.832031,71.75 30.621094,0 0,20.414062 -30.621094,0 z m 0,0"
       style="fill:#fd7a2e;fill-opacity:1;fill-rule:nonzero;stroke:none"
       id="path43"
       inkscape:connector-curvature="0" />
    <path
       d="m 91.867188,71.75 30.617192,0 0,20.414062 -30.617192,0 z m 0,0"
       style="fill:#fd7a2e;fill-opacity:1;fill-rule:nonzero;stroke:none"
       id="path45"
       inkscape:connector-curvature="0" />
    <path
       d="m 530.75781,347.33594 c -2.70312,0 -5.30469,-1.07422 -7.21484,-2.99219 l -40.82813,-40.82813 c -3.91797,-4.05078 -3.80468,-10.51171 0.25782,-14.43359 3.96093,-3.81641 10.22656,-3.81641 14.17578,0 l 40.82812,40.82813 c 3.98047,3.99218 3.98047,10.45312 0,14.43359 -1.92187,1.91797 -4.51172,2.99219 -7.21875,2.99219 z m 0,0"
       style="fill:#f0a36e;fill-opacity:1;fill-rule:nonzero;stroke:none"
       id="path47"
       inkscape:connector-curvature="0" />
  </g>
  <rect
     y="315.86478"
     x="-463.05887"
     height="125.95718"
     width="125.95718"
     id="rect3034"
     style="opacity:0.61233479;fill:#000000;fill-opacity:0;stroke:none"
     inkscape:export-filename="C:\Users\Gema\Desktop\g5304.png"
     inkscape:export-xdpi="72"
     inkscape:export-ydpi="72" />
  <g
     id="g3104"
     transform="matrix(0.20426399,0,0,0.20426399,-449.10361,336.95)"
     inkscape:export-filename="C:\PROYECTOS GIT\TRANSPORTAUTO\img\publica\transferencia_bancaria.png"
     inkscape:export-xdpi="72"
     inkscape:export-ydpi="72">
    <g
       id="g5308"
       inkscape:export-filename="C:\Users\Gema\Desktop\g5304.png"
       inkscape:export-xdpi="72"
       inkscape:export-ydpi="72">
      <path
         inkscape:export-ydpi="72"
         inkscape:export-xdpi="72"
         inkscape:export-filename="C:\Users\Gema\Desktop\asfasdf.png"
         style="fill:#3f3f3f"
         inkscape:connector-curvature="0"
         d="m 16,416 h 448 v 32 H 16 z m 0,0"
         id="path3038" />
      <path
         inkscape:export-ydpi="72"
         inkscape:export-xdpi="72"
         inkscape:export-filename="C:\Users\Gema\Desktop\asfasdf.png"
         style="fill:#717171"
         inkscape:connector-curvature="0"
         d="m 16,432 h 448 v 16 H 16 z m 0,0"
         id="path3040" />
      <path
         inkscape:export-ydpi="72"
         inkscape:export-xdpi="72"
         inkscape:export-filename="C:\Users\Gema\Desktop\asfasdf.png"
         style="fill:#a6a6a6"
         inkscape:connector-curvature="0"
         d="m 0,448 h 480 v 32 H 0 z m 0,0"
         id="path3042" />
      <path
         inkscape:export-ydpi="72"
         inkscape:export-xdpi="72"
         inkscape:export-filename="C:\Users\Gema\Desktop\asfasdf.png"
         style="fill:#f1f1f1"
         inkscape:connector-curvature="0"
         d="m 0,464 h 480 v 16 H 0 z m 0,0"
         id="path3044" />
      <path
         inkscape:export-ydpi="72"
         inkscape:export-xdpi="72"
         inkscape:export-filename="C:\Users\Gema\Desktop\asfasdf.png"
         style="fill:#876b60"
         inkscape:connector-curvature="0"
         d="m 48,192 h 64 V 384 H 48 z m 0,0"
         id="path3046" />
      <path
         inkscape:export-ydpi="72"
         inkscape:export-xdpi="72"
         inkscape:export-filename="C:\Users\Gema\Desktop\asfasdf.png"
         style="fill:#ba9c90"
         inkscape:connector-curvature="0"
         d="M 48,192 H 80 V 384 H 48 z m 0,0"
         id="path3048" />
      <path
         inkscape:export-ydpi="72"
         inkscape:export-xdpi="72"
         inkscape:export-filename="C:\Users\Gema\Desktop\asfasdf.png"
         style="fill:#876b60"
         inkscape:connector-curvature="0"
         d="m 368,192 h 64 v 192 h -64 z m 0,0"
         id="path3050" />
      <path
         inkscape:export-ydpi="72"
         inkscape:export-xdpi="72"
         inkscape:export-filename="C:\Users\Gema\Desktop\asfasdf.png"
         style="fill:#ba9c90"
         inkscape:connector-curvature="0"
         d="m 368,192 h 32 v 192 h -32 z m 0,0"
         id="path3052" />
      <path
         inkscape:export-ydpi="72"
         inkscape:export-xdpi="72"
         inkscape:export-filename="C:\Users\Gema\Desktop\asfasdf.png"
         style="fill:#ba9c90"
         inkscape:connector-curvature="0"
         d="m 32,384 h 96 v 32 H 32 z m 0,0"
         id="path3054" />
      <path
         inkscape:export-ydpi="72"
         inkscape:export-xdpi="72"
         inkscape:export-filename="C:\Users\Gema\Desktop\asfasdf.png"
         style="fill:#876b60"
         inkscape:connector-curvature="0"
         d="m 32,160 h 96 v 32 H 32 z m 0,0"
         id="path3056" />
      <path
         inkscape:export-ydpi="72"
         inkscape:export-xdpi="72"
         inkscape:export-filename="C:\Users\Gema\Desktop\asfasdf.png"
         style="fill:#ba9c90"
         inkscape:connector-curvature="0"
         d="m 352,384 h 96 v 32 h -96 z m 0,0"
         id="path3058" />
      <path
         inkscape:export-ydpi="72"
         inkscape:export-xdpi="72"
         inkscape:export-filename="C:\Users\Gema\Desktop\asfasdf.png"
         style="fill:#876b60"
         inkscape:connector-curvature="0"
         d="m 352,160 h 96 v 32 h -96 z m 0,0"
         id="path3060" />
      <path
         inkscape:export-ydpi="72"
         inkscape:export-xdpi="72"
         inkscape:export-filename="C:\Users\Gema\Desktop\asfasdf.png"
         style="fill:#876b60"
         inkscape:connector-curvature="0"
         d="m 160,160 v 32 h 160 v -32"
         id="path3062" />
      <g
         inkscape:export-ydpi="72"
         inkscape:export-xdpi="72"
         inkscape:export-filename="C:\Users\Gema\Desktop\asfasdf.png"
         style="fill:#edd0c4"
         id="g3064">
        <path
           inkscape:connector-curvature="0"
           d="m 32,176 h 96 v 16 H 32 z m 0,0"
           id="path3066" />
        <path
           inkscape:connector-curvature="0"
           d="m 352,176 h 96 v 16 h -96 z m 0,0"
           id="path3068" />
        <path
           inkscape:connector-curvature="0"
           d="m 160,176 h 160 v 16 H 160 z m 0,0"
           id="path3070" />
      </g>
      <path
         inkscape:export-ydpi="72"
         inkscape:export-xdpi="72"
         inkscape:export-filename="C:\Users\Gema\Desktop\asfasdf.png"
         style="fill:#876b60"
         inkscape:connector-curvature="0"
         d="m 0,128 h 480 v 32 H 0 z m 0,0"
         id="path3072" />
      <path
         inkscape:export-ydpi="72"
         inkscape:export-xdpi="72"
         inkscape:export-filename="C:\Users\Gema\Desktop\asfasdf.png"
         style="fill:#edd0c4"
         inkscape:connector-curvature="0"
         d="m 0,144 h 480 v 16 H 0 z m 0,0"
         id="path3074" />
      <path
         inkscape:export-ydpi="72"
         inkscape:export-xdpi="72"
         inkscape:export-filename="C:\Users\Gema\Desktop\asfasdf.png"
         style="fill:#876b60"
         inkscape:connector-curvature="0"
         d="M 16,128 V 96 L 240,0 464,96 v 32"
         id="path3076" />
      <path
         inkscape:export-ydpi="72"
         inkscape:export-xdpi="72"
         inkscape:export-filename="C:\Users\Gema\Desktop\asfasdf.png"
         style="fill:#ba9c90"
         inkscape:connector-curvature="0"
         d="m 16,112 v 16 H 464 V 112 L 240,16 z m 0,0"
         id="path3078" />
      <path
         inkscape:export-ydpi="72"
         inkscape:export-xdpi="72"
         inkscape:export-filename="C:\Users\Gema\Desktop\asfasdf.png"
         style="fill:#876b60"
         inkscape:connector-curvature="0"
         d="m 272,64 c 0,17.671875 -14.32813,32 -32,32 -17.67188,0 -32,-14.328125 -32,-32 0,-17.671875 14.32812,-32 32,-32 17.67187,0 32,14.328125 32,32 z m 0,0"
         id="path3080" />
      <path
         inkscape:export-ydpi="72"
         inkscape:export-xdpi="72"
         inkscape:export-filename="C:\Users\Gema\Desktop\asfasdf.png"
         style="fill:#edd0c4"
         inkscape:connector-curvature="0"
         d="m 271.60156,68 c 0,-15.464844 -14.14844,-28 -31.60156,-28 -17.45313,0 -31.60156,12.535156 -31.60156,28 0,15.464844 14.14843,28 31.60156,28 17.45312,0 31.60156,-12.535156 31.60156,-28 z m 0,0"
         id="path3082" />
      <path
         inkscape:export-ydpi="72"
         inkscape:export-xdpi="72"
         inkscape:export-filename="C:\Users\Gema\Desktop\asfasdf.png"
         style="fill:#876b60"
         inkscape:connector-curvature="0"
         d="M 184,128 V 96 H 88 v 32"
         id="path3084" />
      <path
         inkscape:export-ydpi="72"
         inkscape:export-xdpi="72"
         inkscape:export-filename="C:\Users\Gema\Desktop\asfasdf.png"
         style="fill:#876b60"
         inkscape:connector-curvature="0"
         d="M 392,128 V 96 h -96 v 32"
         id="path3086" />
      <path
         inkscape:export-ydpi="72"
         inkscape:export-xdpi="72"
         inkscape:export-filename="C:\Users\Gema\Desktop\asfasdf.png"
         style="fill:#edd0c4"
         inkscape:connector-curvature="0"
         d="m 88,104 h 96 v 24 H 88 z m 0,0"
         id="path3088" />
      <path
         inkscape:export-ydpi="72"
         inkscape:export-xdpi="72"
         inkscape:export-filename="C:\Users\Gema\Desktop\asfasdf.png"
         style="fill:#edd0c4"
         inkscape:connector-curvature="0"
         d="m 296,104 h 96 v 24 h -96 z m 0,0"
         id="path3090" />
      <path
         inkscape:export-ydpi="72"
         inkscape:export-xdpi="72"
         inkscape:export-filename="C:\Users\Gema\Desktop\asfasdf.png"
         style="fill:#dc9635"
         inkscape:connector-curvature="0"
         d="m 312,312 c 0,39.76562 -32.23438,72 -72,72 -39.76563,0 -72,-32.23438 -72,-72 0,-39.76563 32.23437,-72 72,-72 39.76562,0 72,32.23437 72,72 z m 0,0"
         id="path3092" />
      <path
         inkscape:export-ydpi="72"
         inkscape:export-xdpi="72"
         inkscape:export-filename="C:\Users\Gema\Desktop\asfasdf.png"
         style="fill:#f5bf45"
         inkscape:connector-curvature="0"
         d="m 311.80078,316 c 0,-37.55469 -32.14844,-68 -71.80078,-68 -39.65234,0 -71.80078,30.44531 -71.80078,68 0,37.55469 32.14844,68 71.80078,68 39.65234,0 71.80078,-30.44531 71.80078,-68 z m 0,0"
         id="path3094" />
      <text
         inkscape:export-ydpi="72"
         inkscape:export-xdpi="72"
         inkscape:export-filename="C:\Users\Gema\Desktop\asfasdf.png"
         sodipodi:linespacing="125%"
         id="text3138"
         y="356.55231"
         x="197.59596"
         style="font-size:117.96923065px;font-style:normal;font-variant:normal;font-weight:normal;font-stretch:normal;text-align:start;line-height:125%;letter-spacing:0px;word-spacing:0px;writing-mode:lr-tb;text-anchor:start;fill:#dc9635;fill-opacity:1;stroke:none;font-family:Open Sans;-inkscape-font-specification:Open Sans"
         xml:space="preserve"><tspan
           style="font-weight:bold;fill:#dc9635;fill-opacity:1;-inkscape-font-specification:Open Sans Bold"
           y="356.55231"
           x="197.59596"
           id="tspan3140"
           sodipodi:role="line">€</tspan></text>
      <path
         inkscape:export-ydpi="72"
         inkscape:export-xdpi="72"
         inkscape:export-filename="C:\Users\Gema\Desktop\CACAÇ.png"
         style="fill:#5d6c53"
         inkscape:connector-curvature="0"
         d="m 1743.5338,-1688.44 c 0,145.0352 -117.5671,262.6023 -262.6023,262.6023 -145.0352,0 -262.6022,-117.5671 -262.6022,-262.6023 0,-145.0352 117.567,-262.6022 262.6022,-262.6022 145.0352,0 262.6023,117.567 262.6023,262.6022 z m 0,0"
         id="path3092-7" />
      <path
         inkscape:export-ydpi="72"
         inkscape:export-xdpi="72"
         inkscape:export-filename="C:\Users\Gema\Desktop\CACAÇ.png"
         style="fill:#89a02c"
         inkscape:connector-curvature="0"
         d="m 1742.8072,-1673.8511 c 0,-136.9713 -117.2537,-248.0131 -261.8757,-248.0131 -144.6223,0 -261.8758,111.0418 -261.8758,248.0131 0,136.9716 117.2535,248.0134 261.8758,248.0134 144.622,0 261.8757,-111.0418 261.8757,-248.0134 z m 0,0"
         id="path3094-1" />
      <text
         inkscape:export-ydpi="72"
         inkscape:export-xdpi="72"
         inkscape:export-filename="C:\Users\Gema\Desktop\CACAÇ.png"
         sodipodi:linespacing="125%"
         id="text3138-9"
         y="-1525.9463"
         x="1326.2732"
         style="font-size:430.26367188px;font-style:normal;font-variant:normal;font-weight:normal;font-stretch:normal;text-align:start;line-height:125%;letter-spacing:0px;word-spacing:0px;writing-mode:lr-tb;text-anchor:start;fill:#bcd35f;fill-opacity:1;stroke:none;font-family:Open Sans;-inkscape-font-specification:Open Sans"
         xml:space="preserve"><tspan
           style="font-weight:bold;fill:#bcd35f;fill-opacity:1;-inkscape-font-specification:Open Sans Bold"
           y="-1525.9463"
           x="1326.2732"
           id="tspan3140-0"
           sodipodi:role="line">€</tspan></text>
      <path
         sodipodi:type="arc"
         style="fill:none;stroke:#89a02c;stroke-width:1.69118607;stroke-linecap:round;stroke-linejoin:round;stroke-miterlimit:5.30000019;stroke-opacity:1;stroke-dasharray:none;stroke-dashoffset:0"
         id="path5432"
         sodipodi:cx="-256.78745"
         sodipodi:cy="61.957775"
         sodipodi:rx="35.471786"
         sodipodi:ry="35.471786"
         d="m -221.31566,61.957775 a 35.471786,35.471786 0 1 1 -70.94357,0 35.471786,35.471786 0 1 1 70.94357,0 z"
         transform="matrix(9.8682482,0,0,9.8682482,4013.1193,-2303.1886)"
         clip-path="url(#clipPath5454)"
         inkscape:export-filename="C:\Users\Gema\Desktop\CACAÇ.png"
         inkscape:export-xdpi="72"
         inkscape:export-ydpi="72" />
      <path
         style="fill:#89a02c;fill-opacity:1;stroke:none"
         d="m 1779.0631,-1810.4012 -2.8733,-61.0595 60.3406,31.6071 z"
         id="path5458"
         inkscape:connector-curvature="0"
         inkscape:export-filename="C:\Users\Gema\Desktop\CACAÇ.png"
         inkscape:export-xdpi="72"
         inkscape:export-ydpi="72" />
      <rect
         style="fill:#ffffff;fill-opacity:1;stroke:none"
         id="rect5460"
         width="57.293224"
         height="35.38699"
         x="1685.9872"
         y="-938.44568"
         transform="matrix(0.9020667,-0.43159665,0.43159665,0.9020667,0,0)"
         inkscape:export-filename="C:\Users\Gema\Desktop\CACAÇ.png"
         inkscape:export-xdpi="72"
         inkscape:export-ydpi="72" />
      <rect
         style="fill:#ffffff;fill-opacity:1;stroke:none"
         id="rect5460-8"
         width="57.293224"
         height="35.38699"
         x="1866.7943"
         y="-170.76041"
         transform="matrix(0.69713726,-0.71693768,0.71693768,0.69713726,0,0)"
         inkscape:export-filename="C:\Users\Gema\Desktop\CACAÇ.png"
         inkscape:export-xdpi="72"
         inkscape:export-ydpi="72" />
      <rect
         style="fill:#ffffff;fill-opacity:1;stroke:none"
         id="rect5460-9"
         width="57.293224"
         height="35.38699"
         x="1811.6954"
         y="497.05075"
         transform="matrix(0.46504136,-0.88528895,0.88528895,0.46504136,0,0)"
         inkscape:export-filename="C:\Users\Gema\Desktop\CACAÇ.png"
         inkscape:export-xdpi="72"
         inkscape:export-ydpi="72" />
      <rect
         style="fill:#ffffff;fill-opacity:1;stroke:none"
         id="rect5460-8-8"
         width="57.293224"
         height="35.38699"
         x="1488.2886"
         y="1219.6306"
         transform="matrix(0.13017326,-0.99149126,0.99149126,0.13017326,0,0)"
         inkscape:export-filename="C:\Users\Gema\Desktop\CACAÇ.png"
         inkscape:export-xdpi="72"
         inkscape:export-ydpi="72" />
      <rect
         style="fill:#ffffff;fill-opacity:1;stroke:none"
         id="rect5460-8-8-9"
         width="57.293224"
         height="35.38699"
         x="673.09839"
         y="1935.1715"
         transform="matrix(-0.35685132,-0.93416119,0.93416119,-0.35685132,0,0)"
         inkscape:export-filename="C:\Users\Gema\Desktop\CACAÇ.png"
         inkscape:export-xdpi="72"
         inkscape:export-ydpi="72" />
    </g>
    <g
       id="g5304"
       transform="translate(0,-34.606838)"
       inkscape:export-xdpi="72"
       inkscape:export-ydpi="72"
       inkscape:export-filename="C:\Users\Gema\Desktop\g5304.png">
      <path
         inkscape:export-ydpi="72"
         inkscape:export-xdpi="72"
         inkscape:export-filename="C:\Users\Gema\Desktop\asfasdf.png"
         sodipodi:nodetypes="cc"
         inkscape:connector-curvature="0"
         id="path3910"
         d="m 527.79313,308.08299 1334.28617,-0.8706"
         style="fill:#aa8800;fill-opacity:0;stroke:#000000;stroke-width:9.17777824;stroke-linecap:butt;stroke-linejoin:miter;stroke-miterlimit:5.30000019;stroke-opacity:1;stroke-dasharray:none;marker-end:url(#Arrow2Lend)" />
    </g>
    <g
       inkscape:export-ydpi="72"
       inkscape:export-xdpi="72"
       inkscape:export-filename="C:\Users\Gema\Desktop\g5304.png"
       id="g5341"
       transform="translate(1900.062,0)">
      <path
         id="path5343"
         d="m 16,416 h 448 v 32 H 16 z m 0,0"
         inkscape:connector-curvature="0"
         style="fill:#3f3f3f"
         inkscape:export-filename="C:\Users\Gema\Desktop\asfasdf.png"
         inkscape:export-xdpi="72"
         inkscape:export-ydpi="72" />
      <path
         id="path5345"
         d="m 16,432 h 448 v 16 H 16 z m 0,0"
         inkscape:connector-curvature="0"
         style="fill:#717171"
         inkscape:export-filename="C:\Users\Gema\Desktop\asfasdf.png"
         inkscape:export-xdpi="72"
         inkscape:export-ydpi="72" />
      <path
         id="path5347"
         d="m 0,448 h 480 v 32 H 0 z m 0,0"
         inkscape:connector-curvature="0"
         style="fill:#a6a6a6"
         inkscape:export-filename="C:\Users\Gema\Desktop\asfasdf.png"
         inkscape:export-xdpi="72"
         inkscape:export-ydpi="72" />
      <path
         id="path5349"
         d="m 0,464 h 480 v 16 H 0 z m 0,0"
         inkscape:connector-curvature="0"
         style="fill:#f1f1f1"
         inkscape:export-filename="C:\Users\Gema\Desktop\asfasdf.png"
         inkscape:export-xdpi="72"
         inkscape:export-ydpi="72" />
      <path
         id="path5351"
         d="m 48,192 h 64 V 384 H 48 z m 0,0"
         inkscape:connector-curvature="0"
         style="fill:#876b60"
         inkscape:export-filename="C:\Users\Gema\Desktop\asfasdf.png"
         inkscape:export-xdpi="72"
         inkscape:export-ydpi="72" />
      <path
         id="path5353"
         d="M 48,192 H 80 V 384 H 48 z m 0,0"
         inkscape:connector-curvature="0"
         style="fill:#ba9c90"
         inkscape:export-filename="C:\Users\Gema\Desktop\asfasdf.png"
         inkscape:export-xdpi="72"
         inkscape:export-ydpi="72" />
      <path
         id="path5355"
         d="m 368,192 h 64 v 192 h -64 z m 0,0"
         inkscape:connector-curvature="0"
         style="fill:#876b60"
         inkscape:export-filename="C:\Users\Gema\Desktop\asfasdf.png"
         inkscape:export-xdpi="72"
         inkscape:export-ydpi="72" />
      <path
         id="path5357"
         d="m 368,192 h 32 v 192 h -32 z m 0,0"
         inkscape:connector-curvature="0"
         style="fill:#ba9c90"
         inkscape:export-filename="C:\Users\Gema\Desktop\asfasdf.png"
         inkscape:export-xdpi="72"
         inkscape:export-ydpi="72" />
      <path
         id="path5359"
         d="m 32,384 h 96 v 32 H 32 z m 0,0"
         inkscape:connector-curvature="0"
         style="fill:#ba9c90"
         inkscape:export-filename="C:\Users\Gema\Desktop\asfasdf.png"
         inkscape:export-xdpi="72"
         inkscape:export-ydpi="72" />
      <path
         id="path5361"
         d="m 32,160 h 96 v 32 H 32 z m 0,0"
         inkscape:connector-curvature="0"
         style="fill:#876b60"
         inkscape:export-filename="C:\Users\Gema\Desktop\asfasdf.png"
         inkscape:export-xdpi="72"
         inkscape:export-ydpi="72" />
      <path
         id="path5363"
         d="m 352,384 h 96 v 32 h -96 z m 0,0"
         inkscape:connector-curvature="0"
         style="fill:#ba9c90"
         inkscape:export-filename="C:\Users\Gema\Desktop\asfasdf.png"
         inkscape:export-xdpi="72"
         inkscape:export-ydpi="72" />
      <path
         id="path5365"
         d="m 352,160 h 96 v 32 h -96 z m 0,0"
         inkscape:connector-curvature="0"
         style="fill:#876b60"
         inkscape:export-filename="C:\Users\Gema\Desktop\asfasdf.png"
         inkscape:export-xdpi="72"
         inkscape:export-ydpi="72" />
      <path
         id="path5367"
         d="m 160,160 v 32 h 160 v -32"
         inkscape:connector-curvature="0"
         style="fill:#876b60"
         inkscape:export-filename="C:\Users\Gema\Desktop\asfasdf.png"
         inkscape:export-xdpi="72"
         inkscape:export-ydpi="72" />
      <g
         id="g5369"
         style="fill:#edd0c4"
         inkscape:export-filename="C:\Users\Gema\Desktop\asfasdf.png"
         inkscape:export-xdpi="72"
         inkscape:export-ydpi="72">
        <path
           id="path5371"
           d="m 32,176 h 96 v 16 H 32 z m 0,0"
           inkscape:connector-curvature="0" />
        <path
           id="path5373"
           d="m 352,176 h 96 v 16 h -96 z m 0,0"
           inkscape:connector-curvature="0" />
        <path
           id="path5375"
           d="m 160,176 h 160 v 16 H 160 z m 0,0"
           inkscape:connector-curvature="0" />
      </g>
      <path
         id="path5377"
         d="m 0,128 h 480 v 32 H 0 z m 0,0"
         inkscape:connector-curvature="0"
         style="fill:#876b60"
         inkscape:export-filename="C:\Users\Gema\Desktop\asfasdf.png"
         inkscape:export-xdpi="72"
         inkscape:export-ydpi="72" />
      <path
         id="path5379"
         d="m 0,144 h 480 v 16 H 0 z m 0,0"
         inkscape:connector-curvature="0"
         style="fill:#edd0c4"
         inkscape:export-filename="C:\Users\Gema\Desktop\asfasdf.png"
         inkscape:export-xdpi="72"
         inkscape:export-ydpi="72" />
      <path
         id="path5381"
         d="M 16,128 V 96 L 240,0 464,96 v 32"
         inkscape:connector-curvature="0"
         style="fill:#876b60"
         inkscape:export-filename="C:\Users\Gema\Desktop\asfasdf.png"
         inkscape:export-xdpi="72"
         inkscape:export-ydpi="72" />
      <path
         id="path5383"
         d="m 16,112 v 16 H 464 V 112 L 240,16 z m 0,0"
         inkscape:connector-curvature="0"
         style="fill:#ba9c90"
         inkscape:export-filename="C:\Users\Gema\Desktop\asfasdf.png"
         inkscape:export-xdpi="72"
         inkscape:export-ydpi="72" />
      <path
         id="path5385"
         d="m 272,64 c 0,17.671875 -14.32813,32 -32,32 -17.67188,0 -32,-14.328125 -32,-32 0,-17.671875 14.32812,-32 32,-32 17.67187,0 32,14.328125 32,32 z m 0,0"
         inkscape:connector-curvature="0"
         style="fill:#876b60"
         inkscape:export-filename="C:\Users\Gema\Desktop\asfasdf.png"
         inkscape:export-xdpi="72"
         inkscape:export-ydpi="72" />
      <path
         id="path5387"
         d="m 271.60156,68 c 0,-15.464844 -14.14844,-28 -31.60156,-28 -17.45313,0 -31.60156,12.535156 -31.60156,28 0,15.464844 14.14843,28 31.60156,28 17.45312,0 31.60156,-12.535156 31.60156,-28 z m 0,0"
         inkscape:connector-curvature="0"
         style="fill:#edd0c4"
         inkscape:export-filename="C:\Users\Gema\Desktop\asfasdf.png"
         inkscape:export-xdpi="72"
         inkscape:export-ydpi="72" />
      <path
         id="path5389"
         d="M 184,128 V 96 H 88 v 32"
         inkscape:connector-curvature="0"
         style="fill:#876b60"
         inkscape:export-filename="C:\Users\Gema\Desktop\asfasdf.png"
         inkscape:export-xdpi="72"
         inkscape:export-ydpi="72" />
      <path
         id="path5391"
         d="M 392,128 V 96 h -96 v 32"
         inkscape:connector-curvature="0"
         style="fill:#876b60"
         inkscape:export-filename="C:\Users\Gema\Desktop\asfasdf.png"
         inkscape:export-xdpi="72"
         inkscape:export-ydpi="72" />
      <path
         id="path5393"
         d="m 88,104 h 96 v 24 H 88 z m 0,0"
         inkscape:connector-curvature="0"
         style="fill:#edd0c4"
         inkscape:export-filename="C:\Users\Gema\Desktop\asfasdf.png"
         inkscape:export-xdpi="72"
         inkscape:export-ydpi="72" />
      <path
         id="path5395"
         d="m 296,104 h 96 v 24 h -96 z m 0,0"
         inkscape:connector-curvature="0"
         style="fill:#edd0c4"
         inkscape:export-filename="C:\Users\Gema\Desktop\asfasdf.png"
         inkscape:export-xdpi="72"
         inkscape:export-ydpi="72" />
      <path
         id="path5397"
         d="m 312,312 c 0,39.76562 -32.23438,72 -72,72 -39.76563,0 -72,-32.23438 -72,-72 0,-39.76563 32.23437,-72 72,-72 39.76562,0 72,32.23437 72,72 z m 0,0"
         inkscape:connector-curvature="0"
         style="fill:#dc9635"
         inkscape:export-filename="C:\Users\Gema\Desktop\asfasdf.png"
         inkscape:export-xdpi="72"
         inkscape:export-ydpi="72" />
      <path
         id="path5399"
         d="m 311.80078,316 c 0,-37.55469 -32.14844,-68 -71.80078,-68 -39.65234,0 -71.80078,30.44531 -71.80078,68 0,37.55469 32.14844,68 71.80078,68 39.65234,0 71.80078,-30.44531 71.80078,-68 z m 0,0"
         inkscape:connector-curvature="0"
         style="fill:#f5bf45"
         inkscape:export-filename="C:\Users\Gema\Desktop\asfasdf.png"
         inkscape:export-xdpi="72"
         inkscape:export-ydpi="72" />
      <text
         xml:space="preserve"
         style="font-size:117.96923065px;font-style:normal;font-variant:normal;font-weight:normal;font-stretch:normal;text-align:start;line-height:125%;letter-spacing:0px;word-spacing:0px;writing-mode:lr-tb;text-anchor:start;fill:#dc9635;fill-opacity:1;stroke:none;font-family:Open Sans;-inkscape-font-specification:Open Sans"
         x="197.59596"
         y="356.55231"
         id="text5401"
         sodipodi:linespacing="125%"
         inkscape:export-filename="C:\Users\Gema\Desktop\asfasdf.png"
         inkscape:export-xdpi="72"
         inkscape:export-ydpi="72"><tspan
           sodipodi:role="line"
           id="tspan5403"
           x="197.59596"
           y="356.55231"
           style="font-weight:bold;fill:#dc9635;fill-opacity:1;-inkscape-font-specification:Open Sans Bold">€</tspan></text>
    </g>
  </g>
</svg>
